<?xml version="1.0" encoding="UTF-8" standalone="no"?><!DOCTYPE svg PUBLIC "-//W3C//DTD SVG 1.1//EN" "http://www.w3.org/Graphics/SVG/1.1/DTD/svg11.dtd"><svg width="100%" height="100%" viewBox="0 0 32 32" version="1.1" xmlns="http://www.w3.org/2000/svg" xmlns:xlink="http://www.w3.org/1999/xlink" xml:space="preserve" xmlns:serif="http://www.serif.com/" style="fill-rule:evenodd;clip-rule:evenodd;stroke-linejoin:round;stroke-miterlimit:2;"><path d="M16,26c-1.097,0 -2,0.903 -2,2c0,1.097 0.903,2 2,2c1.097,0 2,-0.903 2,-2c0,-1.097 -0.903,-2 -2,-2Zm-8,-2c-1.097,0 -2,0.903 -2,2c0,1.097 0.903,2 2,2c1.097,0 2,-0.903 2,-2c0,-1.097 -0.903,-2 -2,-2Zm16,0c-1.097,0 -2,0.903 -2,2c0,1.097 0.903,2 2,2c1.097,0 2,-0.903 2,-2c0,-1.097 -0.903,-2 -2,-2Zm5.4,-10.596l-5.04,-0l0,5.693c0,0.773 -0.627,1.4 -1.4,1.4l-2.999,-0c-0.773,-0 -1.4,-0.627 -1.4,-1.4c-0,-0 -0,-5.693 -0,-5.693l-5.64,-0c-0.773,-0 -1.4,-0.627 -1.4,-1.4l-0,-2.964c-0,-0.773 0.627,-1.4 1.4,-1.4c-0,-0 5.64,-0 5.64,-0l-0,-5.221c-0.816,-0.272 -1.676,-0.418 -2.561,-0.419c-4.281,0.001 -7.999,3.396 -8.828,8.062c-2.95,0.411 -5.17,2.96 -5.172,5.938c-0,3.292 2.708,6 6,6l16,0c3.292,0 6,-2.708 6,-6c-0.002,-0.924 -0.216,-1.806 -0.6,-2.596Zm-9.439,-10.371c1.158,0.636 2.182,1.542 2.999,2.651l0,3.356l1.627,-0c0.093,0.335 0.171,0.677 0.233,1.026c1.446,0.2 2.716,0.912 3.638,1.938l-5.498,-0l0,7.093l-2.999,-0l-0,-7.093l-7.04,-0l-0,-2.964l7.04,-0l-0,-6.007Z" style="fill:#a5b7f3;fill-rule:nonzero;"/><path d="M19.961,19.097l-0,-7.093l-7.04,-0l-0,-2.964l7.04,-0l-0,-7.04l2.999,-0l0,7.04l7.04,-0l0,2.964l-7.04,-0l0,7.093l-2.999,-0Z" style="fill:#e6e6e6;fill-rule:nonzero;"/></svg>